<?xml version="1.0" encoding="UTF-8"?>
<svg width="13px" height="15px" viewBox="0 0 13 15" version="1.1" xmlns="http://www.w3.org/2000/svg" xmlns:xlink="http://www.w3.org/1999/xlink">
    <!-- Generator: sketchtool 58 (101010) - https://sketch.com -->
    <title>0645CDD5-A7B5-42F2-98FB-E217E71962E2</title>
    <desc>Created with sketchtool.</desc>
    <g id="Mobile-Pages" stroke="none" stroke-width="1" fill="none" fill-rule="evenodd">
        <g id="create-profile" transform="translate(-262.000000, -622.000000)" fill="#424242">
            <g id="navigation" transform="translate(0.000000, 607.000000)">
                <g id="Notification">
                    <g transform="translate(258.000000, 15.000000)">
                        <path d="M15.996066,9.80078888 C16.4153357,10.2200586 16.6249708,10.6849012 16.6249708,11.1953168 C16.6249708,11.6875031 16.4472368,12.1113302 16.0917689,12.4667981 C15.736301,12.822266 15.3033595,13 14.7929439,13 L12.2499812,13 C12.2499812,13.4921863 12.0813617,13.906899 11.7441231,14.2441377 C11.4068844,14.5813763 10.9921717,14.7499958 10.4999854,14.7499958 C10.0077991,14.7499958 9.59308638,14.5813763 9.25584774,14.2441377 C8.9186091,13.906899 8.74998957,13.4921863 8.74998957,13 L6.20702688,13 C5.69661129,13 5.26366976,12.822266 4.90820185,12.4667981 C4.55273395,12.1113302 4.375,11.6875031 4.375,11.1953168 C4.375,10.6849012 4.58463506,10.2200586 5.00390475,9.80078888 C5.20442497,9.60026866 5.35025823,9.42709171 5.44140371,9.28125887 C5.60546582,9.02605128 5.72395498,8.71615591 5.79687161,8.35157358 C5.88801709,7.89584536 5.93359003,7.32162798 5.93359003,6.62892144 C5.93359003,5.88152753 6.10220956,5.18426356 6.4394482,4.53712955 C6.77668684,3.88999554 7.23697248,3.35223668 7.82030429,2.92385215 C8.40363609,2.49546761 9.05988452,2.22658819 9.78904959,2.11721345 C9.67967485,1.9713806 9.62498748,1.80731849 9.62498748,1.62502712 C9.62498748,1.38804838 9.71157596,1.18297074 9.88475249,1.00979421 C10.057929,0.836617681 10.2630067,0.750029206 10.4999854,0.750029206 C10.7369641,0.750029206 10.9420418,0.836617681 11.1152183,1.00979421 C11.2883948,1.18297074 11.3749833,1.38804838 11.3749833,1.62502712 C11.3749833,1.80731849 11.3202959,1.9713806 11.2109212,2.11721345 C11.9400863,2.22658819 12.5963347,2.49546761 13.1796665,2.92385215 C13.7629983,3.35223668 14.223284,3.88999554 14.5605226,4.53712955 C14.8977612,5.18426356 15.0663808,5.88152753 15.0663808,6.62892144 C15.0663808,7.32162798 15.1119537,7.89584536 15.2030992,8.35157358 C15.2760158,8.71615591 15.394505,9.02605128 15.5585671,9.28125887 C15.6497126,9.42709171 15.7955458,9.60026866 15.996066,9.80078888 Z M10.4999854,13.6562484 C10.6822768,13.6562484 10.837224,13.5924466 10.964828,13.4648426 C11.092432,13.3372386 11.1562338,13.1822914 11.1562338,13 L9.84373696,13 C9.84373696,13.1822914 9.90753875,13.3372386 10.0351428,13.4648426 C10.1627468,13.5924466 10.317694,13.6562484 10.4999854,13.6562484 Z M14.7929439,11.6875031 C15.0299227,11.6875031 15.1894273,11.5826858 15.2714584,11.3730508 C15.3534895,11.1634157 15.3124739,10.9765673 15.1484118,10.8125052 C14.8385169,10.484381 14.6015381,10.2018297 14.437476,9.96485099 C14.2187265,9.61849751 14.0546644,9.20834223 13.9452897,8.73438517 C13.8176857,8.16928221 13.7538839,7.46746125 13.7538839,6.62892144 C13.7538839,6.04558964 13.608051,5.50327294 13.3163849,5.00197219 C13.0247188,4.50067144 12.6282354,4.10418802 12.1269346,3.8125219 C11.6256339,3.52085579 11.0833172,3.37502295 10.4999854,3.37502295 C9.91665359,3.37502295 9.3743369,3.52085579 8.87303615,3.8125219 C8.3717354,4.10418802 7.97525197,4.50067144 7.68358586,5.00197219 C7.39191975,5.50327294 7.2460869,6.04558964 7.2460869,6.62892144 C7.2460869,7.46746125 7.18228511,8.16016779 7.05468111,8.70704149 C6.94530637,9.19922781 6.78124426,9.61849751 6.56249478,9.96485099 C6.39843268,10.2018297 6.16145394,10.484381 5.85155898,10.8125052 C5.68749687,10.9765673 5.64648134,11.1634157 5.7285124,11.3730508 C5.81054345,11.5826858 5.97004814,11.6875031 6.20702688,11.6875031 L14.7929439,11.6875031 Z" id="notification"></path>
                    </g>
                </g>
            </g>
        </g>
    </g>
</svg>