<?xml version="1.0" encoding="UTF-8"?>
<svg width="16px" height="13px" viewBox="0 0 16 13" version="1.1" xmlns="http://www.w3.org/2000/svg" xmlns:xlink="http://www.w3.org/1999/xlink">
    <!-- Generator: sketchtool 58 (101010) - https://sketch.com -->
    <title>5FCAEA73-B454-4146-BC86-638C856ABEF8@3x</title>
    <desc>Created with sketchtool.</desc>
    <g id="Mobile-Pages" stroke="none" stroke-width="1" fill="none" fill-rule="evenodd">
        <g id="create-profile" transform="translate(-30.000000, -623.000000)" fill="#424242">
            <g id="navigation" transform="translate(0.000000, 607.000000)">
                <g id="Home">
                    <g transform="translate(26.000000, 16.000000)">
                        <path d="M19.3554324,6.33985724 C19.4101198,6.37631535 19.4374635,6.4218883 19.4374635,6.47657567 C19.4374635,6.53126304 19.4192342,6.58595041 19.3827761,6.64063778 L18.8359024,7.3242299 C18.7994443,7.36068801 18.749314,7.38347469 18.6855122,7.39258911 C18.6217104,7.40170353 18.57158,7.38803169 18.5351219,7.35157358 L18.1249666,7.02344937 L18.1249666,12.437499 C18.1249666,12.565103 18.0839511,12.6699203 18.00192,12.7519513 C17.919889,12.8339824 17.8150717,12.8749979 17.6874677,12.8749979 L13.0937286,12.8749979 C13.0390412,12.8749979 12.9889113,12.8522116 12.9433384,12.8066387 C12.8977654,12.7610658 12.8749791,12.7109358 12.8749791,12.6562484 L12.8749791,9.15625678 L11.1249833,9.15625678 L11.1249833,12.6562484 C11.1249833,12.7109358 11.102197,12.7610658 11.0566241,12.8066387 C11.0110512,12.8522116 10.9609212,12.8749979 10.9062338,12.8749979 L6.31249478,12.8749979 C6.18489078,12.8749979 6.08007346,12.8339824 5.99804241,12.7519513 C5.91601135,12.6699203 5.87499583,12.565103 5.87499583,12.437499 L5.87499583,7.02344937 L5.46484056,7.35157358 C5.42838245,7.38803169 5.37825208,7.40170353 5.31445029,7.39258911 C5.2506485,7.38347469 5.20051813,7.36068801 5.16406002,7.3242299 L4.61718633,6.64063778 C4.58072822,6.58595041 4.56249896,6.53126304 4.56249896,6.47657567 C4.56249896,6.4218883 4.58984264,6.37631535 4.64453001,6.33985724 L11.3163891,0.871120283 C11.5169093,0.707058175 11.7447736,0.62502712 11.9999812,0.62502712 C12.2551888,0.62502712 12.4830531,0.707058175 12.6835733,0.871120283 L16.8124698,4.23439351 L16.8124698,2.59377243 C16.8124698,2.53908506 16.835256,2.48895511 16.880829,2.44338216 C16.9264019,2.39780921 16.9765319,2.37502295 17.0312192,2.37502295 L17.9062171,2.37502295 C17.9609045,2.37502295 18.0110345,2.39780921 18.0566074,2.44338216 C18.1021804,2.48895511 18.1249666,2.53908506 18.1249666,2.59377243 L18.1249666,5.32814091 L19.3554324,6.33985724 Z M16.8124698,11.562501 L16.8124698,5.92970197 L12.1366996,2.1015861 C12.0455542,2.02866947 11.9544083,2.02866947 11.8632628,2.1015861 L7.1874927,5.92970197 L7.1874927,11.562501 L9.81248644,11.562501 L9.81248644,8.06250939 C9.81248644,8.00782202 9.8352727,7.95769207 9.88084565,7.91211912 C9.9264186,7.86654617 9.97654855,7.84375991 10.0312359,7.84375991 L13.9687265,7.84375991 C14.0234139,7.84375991 14.0735439,7.86654617 14.1191168,7.91211912 C14.1646897,7.95769207 14.187476,8.00782202 14.187476,8.06250939 L14.187476,11.562501 L16.8124698,11.562501 Z" id="home"></path>
                    </g>
                </g>
            </g>
        </g>
    </g>
</svg>