<?xml version="1.0" encoding="UTF-8"?>
<svg width="14px" height="5px" viewBox="0 0 14 5" version="1.1" xmlns="http://www.w3.org/2000/svg" xmlns:xlink="http://www.w3.org/1999/xlink">
    <!-- Generator: sketchtool 58 (101010) - https://sketch.com -->
    <title>45CE7380-6E95-4B5D-9B7B-EAC59E32E67F</title>
    <desc>Created with sketchtool.</desc>
    <g id="Mobile-Pages" stroke="none" stroke-width="1" fill="none" fill-rule="evenodd">
        <g id="create-profile" transform="translate(-331.000000, -627.000000)" fill="#424242">
            <g id="navigation" transform="translate(0.000000, 607.000000)">
                <g id="More">
                    <g transform="translate(328.000000, 20.000000)">
                        <path d="M9.99998331,0.781267211 C10.546857,0.781267211 11.0116996,0.972673004 11.3945112,1.35548459 C11.7773228,1.73829618 11.9687286,2.20313882 11.9687286,2.75001252 C11.9687286,3.29688621 11.7773228,3.76172885 11.3945112,4.14454044 C11.0116996,4.52735203 10.546857,4.71875782 9.99998331,4.71875782 C9.45310961,4.71875782 8.98826697,4.52735203 8.60545539,4.14454044 C8.2226438,3.76172885 8.031238,3.29688621 8.031238,2.75001252 C8.031238,2.20313882 8.2226438,1.73829618 8.60545539,1.35548459 C8.98826697,0.972673004 9.45310961,0.781267211 9.99998331,0.781267211 Z M9.99998331,3.40626095 C10.1822747,3.40626095 10.337222,3.34245916 10.464826,3.21485516 C10.59243,3.08725116 10.6562317,2.93230389 10.6562317,2.75001252 C10.6562317,2.56772115 10.59243,2.41277388 10.464826,2.28516988 C10.337222,2.15756587 10.1822747,2.09376408 9.99998331,2.09376408 C9.81769194,2.09376408 9.66274467,2.15756587 9.53514067,2.28516988 C9.40753667,2.41277388 9.34373488,2.56772115 9.34373488,2.75001252 C9.34373488,2.93230389 9.40753667,3.08725116 9.53514067,3.21485516 C9.66274467,3.34245916 9.81769194,3.40626095 9.99998331,3.40626095 Z M14.8124718,0.781267211 C15.3593455,0.781267211 15.8241882,0.972673004 16.2069998,1.35548459 C16.5898113,1.73829618 16.7812171,2.20313882 16.7812171,2.75001252 C16.7812171,3.29688621 16.5898113,3.76172885 16.2069998,4.14454044 C15.8241882,4.52735203 15.3593455,4.71875782 14.8124718,4.71875782 C14.2655981,4.71875782 13.8007555,4.52735203 13.4179439,4.14454044 C13.0351323,3.76172885 12.8437265,3.29688621 12.8437265,2.75001252 C12.8437265,2.20313882 13.0351323,1.73829618 13.4179439,1.35548459 C13.8007555,0.972673004 14.2655981,0.781267211 14.8124718,0.781267211 Z M14.8124718,3.40626095 C14.9947632,3.40626095 15.1497105,3.34245916 15.2773145,3.21485516 C15.4049185,3.08725116 15.4687203,2.93230389 15.4687203,2.75001252 C15.4687203,2.56772115 15.4049185,2.41277388 15.2773145,2.28516988 C15.1497105,2.15756587 14.9947632,2.09376408 14.8124718,2.09376408 C14.6301805,2.09376408 14.4752332,2.15756587 14.3476292,2.28516988 C14.2200252,2.41277388 14.1562234,2.56772115 14.1562234,2.75001252 C14.1562234,2.93230389 14.2200252,3.08725116 14.3476292,3.21485516 C14.4752332,3.34245916 14.6301805,3.40626095 14.8124718,3.40626095 Z M5.18749478,0.781267211 C5.73436848,0.781267211 6.19921112,0.972673004 6.58202271,1.35548459 C6.9648343,1.73829618 7.15624009,2.20313882 7.15624009,2.75001252 C7.15624009,3.29688621 6.9648343,3.76172885 6.58202271,4.14454044 C6.19921112,4.52735203 5.73436848,4.71875782 5.18749478,4.71875782 C4.64062109,4.71875782 4.17577845,4.52735203 3.79296686,4.14454044 C3.41015527,3.76172885 3.21874948,3.29688621 3.21874948,2.75001252 C3.21874948,2.20313882 3.41015527,1.73829618 3.79296686,1.35548459 C4.17577845,0.972673004 4.64062109,0.781267211 5.18749478,0.781267211 Z M5.18749478,3.40626095 C5.36978616,3.40626095 5.52473342,3.34245916 5.65233743,3.21485516 C5.77994143,3.08725116 5.84374322,2.93230389 5.84374322,2.75001252 C5.84374322,2.56772115 5.77994143,2.41277388 5.65233743,2.28516988 C5.52473342,2.15756587 5.36978616,2.09376408 5.18749478,2.09376408 C5.00520341,2.09376408 4.85025614,2.15756587 4.72265214,2.28516988 C4.59504814,2.41277388 4.53124635,2.56772115 4.53124635,2.75001252 C4.53124635,2.93230389 4.59504814,3.08725116 4.72265214,3.21485516 C4.85025614,3.34245916 5.00520341,3.40626095 5.18749478,3.40626095 Z" id="more"></path>
                    </g>
                </g>
            </g>
        </g>
    </g>
</svg>