<?xml version="1.0" encoding="UTF-8"?>
<svg width="18px" height="13px" viewBox="0 0 18 13" version="1.1" xmlns="http://www.w3.org/2000/svg" xmlns:xlink="http://www.w3.org/1999/xlink">
    <!-- Generator: sketchtool 58 (101010) - https://sketch.com -->
    <title>D2A8250D-F72A-45A1-8170-AC471976AA96</title>
    <desc>Created with sketchtool.</desc>
    <g id="Mobile-Pages" stroke="none" stroke-width="1" fill="none" fill-rule="evenodd">
        <g id="create-profile" transform="translate(-98.000000, -623.000000)" fill="#424242">
            <g id="navigation" transform="translate(0.000000, 607.000000)">
                <g id="Categories">
                    <g transform="translate(88.000000, 16.000000)">
                        <path d="M25.9999624,5.13673511 C26.4739195,5.28256796 26.8749604,5.54233297 27.2030846,5.91603013 C27.5312088,6.2897273 27.7135002,6.72266883 27.7499583,7.21485516 C27.7681875,7.61589601 27.7043853,7.99415018 27.5585525,8.34961808 C27.4127196,8.70508598 27.1848553,9.01042393 26.8749604,9.26563152 L26.8749604,11.7812505 C26.8749604,12.0911455 26.770143,12.3509105 26.560508,12.5605455 C26.3508729,12.7701806 26.0911079,12.8749979 25.781213,12.8749979 L23.3749687,12.8749979 C23.2109066,12.8749979 23.0559589,12.8385398 22.9101261,12.7656232 C22.6549185,12.6197903 22.5182001,12.3645823 22.4999708,12 L15.4999875,12 C15.4817582,12.3645823 15.3450398,12.6197903 15.0898322,12.7656232 C14.9439994,12.8385398 14.7890517,12.8749979 14.6249896,12.8749979 L12.2187453,12.8749979 C11.9088504,12.8749979 11.6490853,12.7701806 11.4394503,12.5605455 C11.2298152,12.3509105 11.1249979,12.0911455 11.1249979,11.7812505 L11.1249979,9.26563152 C10.815103,9.01042393 10.5872386,8.70508598 10.4414058,8.34961808 C10.2955729,7.99415018 10.2317707,7.61589601 10.25,7.21485516 C10.2864581,6.72266883 10.4687495,6.2897273 10.7968737,5.91603013 C11.1249979,5.54233297 11.5260388,5.28256796 11.9999958,5.13673511 L11.9999958,3.25002086 C11.9999958,2.52085579 12.2552034,1.90106588 12.765619,1.39065029 C13.2760346,0.880234706 13.8958245,0.62502712 14.6249896,0.62502712 L23.3749687,0.62502712 C24.1041338,0.62502712 24.7239237,0.880234706 25.2343393,1.39065029 C25.7447549,1.90106588 25.9999624,2.52085579 25.9999624,3.25002086 L25.9999624,5.13673511 Z M14.1874906,11.562501 L14.1874906,7.40626095 C14.1874906,7.096366 14.0826733,6.83660099 13.8730382,6.62696594 C13.6634032,6.41733088 13.4036382,6.31251356 13.0937432,6.31251356 L12.765619,6.31251356 C12.455724,6.31251356 12.1822872,6.41277388 11.9453085,6.61329409 C11.7083297,6.81381431 11.5807261,7.05079305 11.5624969,7.3242299 C11.5442676,7.52475011 11.5852831,7.71615591 11.6855435,7.89844728 C11.7858038,8.08073865 11.9270792,8.2265715 12.1093706,8.33594624 L12.4374948,8.52735203 L12.4374948,11.562501 L14.1874906,11.562501 Z M22.4999708,8.06250939 L15.4999875,8.06250939 L15.4999875,10.6875031 L22.4999708,10.6875031 L22.4999708,8.06250939 Z M22.6093455,6.75001252 C22.7369495,6.27605545 22.9921571,5.87957202 23.3749687,5.56056223 C23.7577803,5.24155243 24.1952793,5.06381848 24.6874656,5.02736037 L24.6874656,3.25002086 C24.6874656,2.88543854 24.5598616,2.57554316 24.304654,2.32033558 C24.0494464,2.06512799 23.739551,1.93752399 23.3749687,1.93752399 L14.6249896,1.93752399 C14.2604072,1.93752399 13.9505119,2.06512799 13.6953043,2.32033558 C13.4400967,2.57554316 13.3124927,2.88543854 13.3124927,3.25002086 L13.3124927,5.02736037 C13.804679,5.06381848 14.242178,5.24155243 14.6249896,5.56056223 C15.0078012,5.87957202 15.2630087,6.27605545 15.3906127,6.75001252 L22.6093455,6.75001252 Z M25.8905877,8.33594624 C26.0728791,8.2265715 26.2141545,8.08073865 26.3144148,7.89844728 C26.4146751,7.71615591 26.4556907,7.52475011 26.4374614,7.3242299 C26.4192321,7.05079305 26.2916286,6.81381431 26.0546498,6.61329409 C25.8176711,6.41277388 25.5442342,6.31251356 25.2343393,6.31251356 L24.9062151,6.31251356 C24.5963201,6.31251356 24.3365551,6.41733088 24.12692,6.62696594 C23.917285,6.83660099 23.8124677,7.096366 23.8124677,7.40626095 L23.8124677,11.562501 L25.5624635,11.562501 L25.5624635,8.52735203 L25.8905877,8.33594624 Z" id="categories"></path>
                    </g>
                </g>
            </g>
        </g>
    </g>
</svg>